<?xml version="1.0" standalone="no"?>
<!DOCTYPE svg PUBLIC "-//W3C//DTD SVG 20010904//EN"
 "http://www.w3.org/TR/2001/REC-SVG-20010904/DTD/svg10.dtd">
<svg version="1.0" xmlns="http://www.w3.org/2000/svg"
 width="1578.000000pt" height="672.000000pt" viewBox="0 0 1578.000000 672.000000"
 preserveAspectRatio="xMidYMid meet">

<g transform="translate(0.000000,672.000000) scale(0.100000,-0.100000)"
fill="#000000" stroke="none">
<path d="M0 3360 l0 -3360 7890 0 7890 0 0 3360 0 3360 -7890 0 -7890 0 0
-3360z m8225 2189 c240 -20 410 -66 600 -159 299 -148 496 -371 599 -680 106
-317 84 -688 -60 -998 -103 -225 -300 -437 -506 -547 l-59 -32 103 -51 c190
-92 321 -218 404 -388 106 -217 128 -472 63 -728 -54 -211 -210 -435 -389
-556 -108 -73 -266 -140 -403 -170 -92 -20 -270 -29 -381 -19 -416 36 -696
252 -814 629 -79 251 -90 461 -73 1464 19 1149 17 1219 -23 1281 -15 23 -15
25 19 51 57 44 155 74 239 74 149 0 237 -61 277 -191 l22 -72 -9 -621 c-13
-928 -12 -1573 4 -1676 42 -265 152 -417 335 -463 86 -22 245 -22 318 -1 253
74 401 301 386 593 -11 229 -117 396 -312 492 -109 53 -215 78 -365 86 -108 5
-128 8 -148 27 -60 54 -100 192 -82 284 10 55 40 122 62 139 7 5 57 15 111 22
131 17 223 43 332 96 274 134 430 352 481 672 49 315 -55 621 -271 796 -79 64
-238 141 -350 169 -79 20 -115 23 -295 23 -225 0 -293 -10 -463 -66 -307 -103
-545 -319 -677 -616 -84 -190 -125 -449 -101 -648 29 -257 130 -466 255 -531
64 -33 70 -46 64 -132 -9 -129 -109 -267 -215 -298 -106 -31 -202 4 -299 109
-216 234 -324 578 -311 997 8 246 42 414 124 615 148 364 415 651 768 827 185
93 379 152 600 182 191 27 274 30 440 15z"/>
</g>
</svg>
