<?xml version="1.0" standalone="no"?>
<!DOCTYPE svg PUBLIC "-//W3C//DTD SVG 20010904//EN"
 "http://www.w3.org/TR/2001/REC-SVG-20010904/DTD/svg10.dtd">
<svg version="1.0" xmlns="http://www.w3.org/2000/svg"
 width="720.000000pt" height="720.000000pt" viewBox="0 0 720.000000 720.000000"
 preserveAspectRatio="xMidYMid meet">

<g transform="translate(0.000000,720.000000) scale(0.100000,-0.100000)"
fill="#000000" stroke="none">
<path d="M1245 5970 c-7 -12 -4 -4695 3 -4723 4 -16 122 -17 2356 -15 l2351 3
0 380 c0 209 -1 1277 -2 2373 l-3 1992 -2349 0 c-1593 0 -2352 -3 -2356 -10z
m3274 -1191 c57 -12 114 -56 144 -112 21 -40 22 -53 22 -282 0 -229 -1 -242
-22 -282 -12 -22 -35 -51 -50 -63 -66 -51 -42 -50 -846 -50 -738 0 -751 0
-793 21 -55 26 -100 78 -114 130 -7 26 -10 125 -8 273 3 229 3 233 28 269 28
42 82 81 131 96 47 13 1445 14 1508 0z m17 -1544 c37 -6 108 -65 132 -109 14
-26 17 -66 20 -243 5 -296 -11 -359 -108 -413 l-45 -25 -765 0 -765 0 -45 25
c-25 14 -58 45 -75 70 l-30 45 -3 231 c-4 257 2 295 50 350 38 43 77 64 136
73 54 7 1453 4 1498 -4z"/>
</g>
</svg>
