<?xml version="1.0" encoding="utf-8" ?><svg xmlns="http://www.w3.org/2000/svg" xmlns:xlink="http://www.w3.org/1999/xlink" width="1024" height="1024" viewBox="0 0 1024 1024"><path fill="#FCFCFB" d="M0 0L1024 0L1024 1024L0 1024L0 0Z"/><path fill="#D9573A" d="M207.605 111.133L816.065 111.012L815.878 397.792C806.701 407.573 794.716 417.53 785.276 427.416C781.199 431.686 777.071 435.249 773.408 440.016C786.698 454.385 802.438 467.779 816.015 481.831L816.057 744.25L816.117 785.393C797.765 784.873 777.871 785.243 759.423 785.258L650.862 785.273L207.491 785.307L207.605 111.133Z"/><path fill="#FCFCFB" d="M290.287 195.966L733.161 196.116C733.744 217.275 733.408 240.134 733.348 261.372L733.119 367.662C726.032 376.785 711.434 391.832 703.283 400.725C690.405 414.929 677.746 429.33 665.31 443.923C672.139 450.671 678.707 458.35 685.348 465.383C701.428 482.104 717.339 498.985 733.081 516.025L733.375 634.351L733.321 700.697L290.364 700.888L290.287 195.966Z"/><path fill="#091318" d="M330.52 235.071L605.793 235.066C613.83 241.984 623.524 252.034 631.26 259.446C651.484 278.761 671.568 298.224 691.51 317.831L691.661 392.881C686.132 399.177 679.821 405.186 674.097 411.329C663.574 422.621 652.434 433.981 642.219 445.513C652.625 456.607 663.246 467.496 674.077 478.175C677.918 482.024 689.254 492.874 691.699 496.643C691.912 522.969 691.875 549.296 691.588 575.621C676.061 591.823 658.236 608.732 642.144 624.781C629.946 636.724 617.898 648.82 606.001 661.064C569.645 660.45 531.731 660.861 495.317 660.916L330.445 660.952L330.444 580.107C351.15 580.578 372.935 580.318 393.719 580.372L393.932 315.458L330.48 315.284L330.52 235.071Z"/><path fill="#FCFCFB" d="M471.969 487.463C483.327 487.132 495.956 487.393 507.39 487.402L573.353 487.498C587.367 501.441 605.052 521.002 618.475 535.837C613.353 542.061 602.552 552.194 596.482 558.164C588.939 565.323 581.396 573.026 573.896 580.325C540.6 580.704 505.204 580.626 471.889 580.261C471.478 549.726 471.824 518.045 471.969 487.463Z"/><path fill="#FCFCFB" d="M471.858 315.411C482.703 315.035 495.856 315.368 506.894 315.374L574.378 315.443C587.664 327.278 605.636 346.378 618.739 359.542C611.186 367.591 603.544 375.555 595.814 383.432C588.478 390.96 581.181 398.824 573.883 406.43L471.848 406.313C471.367 395.364 471.739 382.308 471.79 371.194L471.858 315.411Z"/><path fill="#D9573A" d="M202.866 810.498L443.736 810.475C446.917 813.237 451.428 818.134 454.468 821.236C458.097 817.958 461.819 814.032 465.283 810.527C506.85 810.506 551.151 809.742 592.465 810.751L609.2 825.608C615.849 821.147 623.502 815.265 630.184 810.54L821.505 810.534L821.564 856.199C821.603 863.796 822.028 874.677 821.114 882.094C820.937 883.529 816.729 894.215 815.892 896.41C813.877 902.128 811.768 907.813 809.564 913.461L629.601 913.268C623.206 909.687 615.483 903.639 609.507 899.12C601.651 903.965 596.705 907.776 589.664 913.498L214.959 913.411L214.996 858.574L202.949 858.544L202.866 810.498Z"/><path fill="#FCFCFB" d="M632.887 817.09L751.16 816.882L790.296 817.002C798.092 817.032 807.238 816.877 814.933 817.416L815.039 857.734C815.05 869.392 816.205 877.631 812.006 888.661C809.564 894.752 807.181 900.867 804.856 907.003C747.249 906.17 688.818 907.828 631.107 906.96C623.348 902.282 616.276 895.293 608.422 890.174C601.24 895.954 593.915 901.556 586.456 906.974C531.424 907.604 475.653 907.255 420.581 907.117L221.825 907.192C221.573 888.869 221.879 869.886 221.933 851.501L209.475 851.666C209.411 840.11 209.406 828.554 209.461 816.999L361.52 817.012C386.893 817.07 416.181 816.367 441.298 817.297C445.315 821.258 449.7 826.317 453.897 830.563C458.72 826.569 463.514 821.411 468.52 817.148C481.736 816.508 498.99 817.011 512.572 817.011L589.161 817.107C593.58 819.947 603.792 830.447 608.123 834.67C616.041 830.564 624.728 821.815 632.887 817.09Z"/><path fill="#D9573A" d="M792.364 825.911L806.737 825.93C803.871 835.812 805.477 859.781 805.279 871.141C804.992 887.624 804.684 882.451 799.094 897.511L784.54 897.509C782.41 894.613 781.074 892.144 779.313 889.016C777.479 891.807 775.267 894.767 773.304 897.506L759.098 897.506C753.258 883.595 754.203 884.463 753.986 869.77C753.787 856.328 755.195 839.029 753.283 826.068L769.197 826.064C766.353 834.049 767.768 864.672 767.877 874.736C767.895 876.367 769.359 881.767 769.866 883.606L770.149 883.103C771.526 880.617 773.531 876.118 773.711 873.282C774.295 864.121 775.26 833.496 773.102 826.081L787.166 826.108C785.578 830.455 785.162 836.423 785.473 841.06C786.131 850.873 784.402 864.049 785.851 873.553L785.999 874.478C786.561 878.154 787.523 880.111 788.947 883.57C794.021 873.616 792.58 861.005 792.515 849.675C792.57 841.754 792.52 833.832 792.364 825.911Z"/><path fill="#D9573A" d="M552.724 826.048L582.805 826.207L591.916 835.107L591.592 889.874L587.506 893.784L584.23 897.447L553.572 897.464C554.01 894.471 554.183 891.07 554.165 888.037C554.053 869.203 554.622 850.316 554.11 831.495C554.062 829.755 553.332 827.674 552.724 826.048Z"/><path fill="#FCFCFB" d="M568.201 838.426C571.46 838.403 574.72 838.425 577.979 838.49L577.992 885.478C574.747 885.504 571.502 885.511 568.257 885.499L568.201 838.426Z"/><path fill="#D9573A" d="M367.658 826.129L396.134 826.089C399.551 828.902 402.373 831.626 405.554 834.677L405.536 856.649C404.819 857.538 404.171 858.448 403.5 859.37C403.797 861.19 404.347 861.033 406.268 862.609L406.236 888.551C405.256 889.672 404.219 890.67 403.168 891.725C401.033 893.805 398.793 895.603 396.503 897.507L367.705 897.523C369.204 890.799 369.087 833.729 367.658 826.129Z"/><path fill="#FCFCFB" d="M382.432 866.5C385.794 866.49 389.156 866.504 392.517 866.542L392.5 885.385C389.148 885.44 385.794 885.451 382.441 885.416L382.432 866.5Z"/><path fill="#FCFCFB" d="M382.516 838.131C386.046 838.078 388.566 838.079 392.064 838.327C392.231 844.069 392.274 849.813 392.193 855.557L382.525 855.609C382.479 849.783 382.476 843.957 382.516 838.131Z"/><path fill="#D9573A" d="M505.419 826.144C510.822 826.186 516.226 826.17 521.629 826.098C523.509 838.201 527.073 849.994 529.192 862.054C529.837 865.724 530.52 869.383 531.573 872.96C531.494 864.07 531.887 832.817 530.069 826.189L545.759 826.243C543.768 832.81 544.696 851.855 544.763 859.795L544.936 897.48L528.837 897.43L520.854 858.27C518.419 862.115 520.406 885.927 519.82 892.382C520.076 894.32 520.213 895.2 520.163 897.133C517.679 897.562 508.285 897.403 505.273 897.412C506.868 891.156 506.593 833.739 505.419 826.144Z"/><path fill="#FAD1D0" d="M519.82 892.382C519.172 891.2 518.955 853.196 519.437 849.941C519.585 850.886 519.722 851.832 519.847 852.78C520.108 854.854 520.582 856.305 520.854 858.27C518.419 862.115 520.406 885.927 519.82 892.382Z"/><path fill="#D9573A" d="M469.775 826.486C478.744 826.397 487.714 826.373 496.683 826.415C495.699 837.154 496.325 852.894 496.221 864.09C496.149 871.766 495.886 891.055 497.268 897.451L481.114 897.403C482.962 889.988 482.479 885.406 482.408 877.75C482.488 875.865 482.808 874.537 481.783 873.035C479.721 871.806 475.847 872.342 473.149 872.407C473.103 879.151 472.619 891.37 474.004 897.428L458.199 897.445C460.142 889.856 459.532 878.021 459.525 869.912L459.587 836.785L469.775 826.486Z"/><path fill="#FCFCFB" d="M475.15 837.747C477.606 837.72 480.062 837.743 482.517 837.814L482.528 858.761C482.513 860.589 482.412 860.645 480.625 860.62C478.081 860.608 475.537 860.554 472.994 860.459C472.952 853.257 472.838 845.399 473.173 838.195C473.192 837.798 474.902 837.763 475.15 837.747Z"/><path fill="#D9573A" d="M412.619 826.206C422.555 826.112 432.491 826.102 442.427 826.178C446.246 828.572 448.613 830.848 451.706 834.05L451.684 857.051C448.594 860.229 444.847 863.106 441.386 865.912C444.234 867.987 447.527 870.525 450.552 872.219C450.512 881.346 449.956 888.554 451.862 897.483L436.429 897.473L436.876 889.963C436.919 884.89 437.027 879.954 436.674 874.885C433.591 870.496 431.438 867.705 428.02 863.594C428.006 874.399 427.651 886.921 428.631 897.497L413.331 897.494C414.098 893.742 414.143 890.48 414.121 886.663C414.014 868.291 414.343 849.884 413.882 831.522C413.841 829.884 413.149 827.763 412.619 826.206Z"/><path fill="#FCFCFB" d="M427.808 837.654C431.37 837.585 434.452 837.569 438.02 837.774C438.054 843.576 438.195 850.096 438.018 855.827C434.575 855.842 431.133 855.878 427.691 855.937C427.675 849.958 427.555 843.598 427.808 837.654Z"/><path fill="#D9573A" d="M665.479 826.048C675.312 826.104 685.145 826.212 694.977 826.372C698.592 829.029 701.457 831.493 704.431 834.831L704.356 856.919C701.151 860.218 697.192 862.713 693.385 865.281C695.826 868.35 699.404 871.398 702.35 874.081C702.139 881.543 702.404 889.973 702.479 897.505L689.55 897.514L689.701 886.712L689.586 874.577C686.847 870.151 684.122 867.403 680.535 863.646C680.456 872.391 679.676 889.461 681.511 897.354L666.211 897.371C666.592 893.786 666.728 890.261 666.736 886.651C666.773 868.262 667.299 849.801 666.668 831.427C666.611 829.787 665.969 827.611 665.479 826.048Z"/><path fill="#FCFCFB" d="M680.584 838.014C684 838.003 687.416 838.037 690.831 838.118L690.725 856.056L680.647 856.07C680.581 850.052 680.56 844.033 680.584 838.014Z"/><path fill="#D9573A" d="M286.448 826.076L301.585 826.148C300.992 828.111 300.615 830.132 300.458 832.176C299.156 850.755 300.873 871.614 300.297 890.403C300.233 892.476 301.637 895.953 300.995 897.347L299.625 897.453L285.408 897.46C287.662 889.912 286.914 874.201 286.907 865.826C283.557 865.618 280.007 865.72 276.633 865.75C276.569 875.736 275.877 887.962 277.768 897.493L262.19 897.463C263.28 887.394 264.012 833.863 261.883 826.146L278.186 826.226C276.011 833.12 276.824 848.11 276.9 856L286.865 855.995C286.855 846.136 286.996 835.888 286.448 826.076Z"/><path fill="#D9573A" d="M630.863 826.343L651.558 826.357C654.746 829.188 655.691 829.873 658.252 833.31C658.145 838.374 658.158 843.44 658.292 848.504C653.349 851.333 649.405 853.634 644.005 855.461L643.911 837.882C640.919 837.683 637.626 837.808 634.605 837.846L634.537 886.399L643.804 886.438C643.841 882.616 643.793 879.657 643.538 875.851C648.412 873.687 652.938 871.418 657.945 869.265C657.755 876.383 657.649 884.217 658.058 891.29C656.211 893.386 653.9 895.507 651.875 897.467L631.493 897.389C627.509 894.558 624.104 890.909 620.695 887.418C621.037 870.482 620.905 852.927 620.867 835.96C624.252 832.81 627.584 829.603 630.863 826.343Z"/><path fill="#D9573A" d="M308.851 825.992L345.37 826.014C345.569 831.477 346.164 836.363 346.845 841.749L343.164 838.394C336.702 838.072 330.525 838.168 324.06 838.228L324.108 855.822C331.389 855.838 332.912 856.246 339.054 852.598L339.197 868.279C332.944 864.937 331.044 865.357 324.009 865.437L324.027 877.768L324.024 885.292C326.977 885.311 342.24 885.697 344.2 884.633L346.965 883.104C347.169 885.477 345.287 894.863 344.752 897.545L309.256 897.504C310.007 893.661 310.283 890.482 310.267 886.539C310.189 868.104 310.565 849.625 310.091 831.202C310.054 829.767 309.298 827.383 308.851 825.992Z"/><path fill="#D9573A" d="M709.541 826.054L745.417 826.024L746.082 841.545C745.769 841.158 744.408 839.524 744.134 839.391C740.242 837.507 729.023 838.345 724.588 838.424L724.581 855.727C728.212 855.859 731.19 855.792 734.829 855.659C736.331 854.673 737.904 853.324 739.317 852.18C739.394 857.384 739.327 862.786 739.327 868.006C739.125 867.902 738.923 867.799 738.721 867.696L737.817 867.256C733.46 865.093 729.28 865.587 724.401 865.62L724.394 878.219L724.393 885.398C729.467 885.411 742.128 886.505 745.81 884.016L746.676 884.307C746.84 885.588 745.132 895.352 744.802 897.528L709.474 897.491C711.139 890.011 711.029 833.625 709.541 826.054Z"/><path fill="#D9573A" d="M219.726 826.257C230.181 826.79 244.438 826.306 255.088 826.206C255.085 829.146 255.792 835.385 254.639 837.345C253.157 837.992 247.711 837.552 245.532 837.528C245.29 855.294 245.462 873.472 245.433 891.272C245.449 893.432 245.686 895.363 245.906 897.505L230.615 897.496C231.851 889.007 231.499 880.248 231.479 871.641L231.334 837.625L224.757 837.692C223.079 838.719 222.071 839.7 220.587 841.005C220.649 836.774 220.991 830.164 219.726 826.257Z"/></svg>