<?xml version="1.0" encoding="utf-8" ?><svg xmlns="http://www.w3.org/2000/svg" xmlns:xlink="http://www.w3.org/1999/xlink" width="255" height="446" viewBox="0 0 255 446"><path fill="#DD614C" transform="scale(0.332031 0.331845)" d="M379.966 83.15C387.904 78.0041 389.771 78.2007 397.308 83.5547C408.548 76.9557 415.156 81.2369 421.44 91.9789C447.573 91.1743 455.649 95.0717 475.042 112.455C500.378 100.161 506.234 106.354 497.354 132.139C506.788 143.127 503.34 147.874 507.962 158.104C512.778 168.762 525.988 182.514 506.635 188.887C507.606 201.046 508.485 213.03 510.431 225.076C511.779 233.423 514.344 242.073 515.323 250.382C518.556 277.832 501.396 306.426 476.752 318.27C474.326 319.445 471.486 320.873 468.864 321.388C471.016 331.031 478.478 329.133 479.958 334.543C483.454 337.057 490.398 339.963 494.399 341.563C520.541 352.022 540.81 356.838 553.006 384.75C568.039 419.024 582.577 456.063 590.936 492.562C593.362 503.153 585.641 537.743 577.808 547.165C568.662 558.166 560.421 561.216 547.064 563.321C550.829 577.863 556.35 592.659 559.654 608.652C563.914 629.275 571.043 668.068 561.92 688.138C560.277 691.751 552.191 693.191 548.302 693.975C550.877 729.94 547.58 753.466 545.567 789.013C542.902 833.835 541.105 878.703 540.179 923.594C539.373 975.222 540.233 1026.86 542.755 1078.44C544.914 1117.62 549.357 1156.29 550.186 1195.48C542.071 1199.35 532.209 1201.69 523.206 1201.52C523.786 1210.01 524.161 1216.7 526.197 1224.93C528.158 1225.61 530.338 1226.05 531.512 1227.6C531.455 1229.14 531.391 1229.25 530.863 1230.74L530.723 1231.12C532.429 1234.48 540.171 1242.11 543.048 1245.12C546.472 1244.25 551.781 1242.84 554.351 1246.07C553.341 1248.26 551.287 1248.43 549.132 1250.18L549.727 1251.72C552.192 1253.15 554.145 1254.8 556.37 1256.57C559.686 1255.57 568.085 1253.22 569.439 1257.81C568.081 1260.41 567.96 1259.89 565.083 1261.66L571.197 1265.48C573.992 1263.89 578.523 1260.84 580.752 1264.44C580.711 1266.64 579.224 1267.9 577.756 1269.55C579.477 1269.9 581.181 1270.33 582.862 1270.85C589.312 1272.85 594.857 1276.41 598.018 1282.53C598.612 1283.66 599.113 1284.84 599.516 1286.05C600.759 1289.82 601.255 1296.1 602.559 1299.23C606.224 1308.02 612.14 1318.29 599.004 1322.96C590.926 1325.84 576.543 1331.64 567.44 1331.7C544.762 1331.86 518.976 1324.5 497.693 1316.82C489.21 1313.57 464.721 1302.62 461.176 1293.72C460.243 1291.37 465.057 1282.48 466.333 1279.43C464.63 1270.3 466.756 1250.56 474.9 1244.82C475.528 1229.45 476.644 1214.1 478.247 1198.8C476.939 1198.54 475.655 1198.17 474.408 1197.7C467.632 1195.14 468.626 1185.67 468.182 1179.71C467.658 1172.68 467.24 1165.62 466.753 1158.58C465.339 1137.6 463.546 1116.64 461.374 1095.72C453.691 1020.02 444.601 944.466 434.11 869.103C431.635 851.131 429.157 814.685 422.288 799.46C419.574 802.204 416.97 805.056 414.484 808.008C401.087 823.936 395.768 844.165 388.638 863.421C358.463 944.915 342.585 1029.82 323.749 1114.42C320.324 1129.9 316.736 1145.34 312.987 1160.74C310.877 1169.27 308.509 1177.91 306.673 1186.62C305.661 1191.41 310.425 1198.13 300.401 1199.58C297.284 1200.03 293.015 1199.38 289.795 1199.12C289.582 1210.6 288.596 1222.49 288.855 1233.93C289.251 1237.04 288.802 1237.15 291.266 1238.85C298.853 1244.06 298.182 1259.83 299.727 1268.12C300.576 1272.68 301.958 1290.25 298.48 1293.03C278.085 1309.37 249.857 1318.76 225.947 1329.26C212.14 1335.33 173.884 1332.25 162.753 1322.36C159.771 1319.75 157.997 1316.03 157.846 1312.07C157.749 1309.12 160.095 1286.93 161.115 1285.03C165.588 1276.68 205.274 1257.26 216.29 1247.16C224.013 1240.07 222.994 1229.87 229.284 1223.28C232.554 1219.86 236.245 1219.52 240.75 1219.45C240.977 1208.86 241.896 1202.14 245.165 1192.2C242.451 1191.85 239.09 1191.74 236.306 1191.58C236.07 1179.67 237.306 1166.47 238.197 1154.51C239.511 1136.23 241.029 1117.96 242.749 1099.71C248.464 1041.06 255.996 982.6 265.334 924.416C272.91 878.105 282.083 831.922 289.623 785.541C293.552 761.375 292.166 743.644 293.959 719.758C295.024 705.574 300.487 690.488 303.978 676.749C295.68 674.209 295.219 671.906 296.42 663.35C298.464 648.787 301.855 634.326 304.818 619.908C309.377 598.17 313.176 576.28 316.207 554.277C312.267 552.547 308.473 550.385 305.337 547.413C284.583 527.743 277.042 430.224 276.539 400.218C276.276 384.498 275.627 360.245 287.491 348.147C291.547 344.092 296.289 340.785 301.496 338.38C317.51 330.803 357.469 322.23 374.855 321.978C385.257 334.345 398.981 313.082 404.259 305.813C403.879 303.905 404.152 304.598 402.739 303.065C396.035 299.972 390.383 294.021 386.617 287.735C382.79 287.07 379.494 286.61 375.926 285.069C363.465 279.689 359.105 266.654 358.285 254.1C358.196 252.734 353.374 247.102 352.92 245.343C351.29 237.282 350.755 229.282 347.914 221.446C347.686 220.817 347.855 217.06 347.888 216.199C346.029 214.462 339.562 208.556 338.532 206.607C334.542 199.061 333.916 184.693 333.44 176.324C332.895 166.744 334.476 157.37 338.483 148.743C340.003 145.471 345.489 139.534 345.647 136.988C343.265 136.318 340.507 138.165 338.309 139.377C330.631 136.947 325.403 135.286 328.787 125.77C329.223 124.564 329.67 123.363 330.128 122.166C326.587 107.431 327.915 106.826 340.408 98.6342C341.131 87.6416 343.123 88.2953 353.398 87.8239C363.002 78.8165 367.466 76.8489 379.966 83.15Z"/><path fill="#F9F8F8" transform="scale(0.332031 0.331845)" d="M448.477 187.641C456.434 189.93 459.804 190.34 465.899 184.388C477.322 187.432 489.693 187.545 501.495 187.768C501.507 197.388 502.053 206.999 503.129 216.558C497.839 214.394 490.363 212.203 485.618 216.94L485.494 218.412C487.756 220.729 490.973 219.956 494.071 219.81C511.956 232.344 511.916 259.994 505.615 278.84C500.114 268.693 498.384 267.923 486.952 266.523C485.229 267.35 481.165 269.337 479.562 269.312C461.498 269.024 429.013 254.986 430.221 286.794C430.959 306.232 472.358 302.506 484.913 299.89C488.103 299.225 492.258 297.62 495.137 296.501C480.364 312.35 464.22 323.404 441.782 316.249C436.261 314.489 430.088 308.11 425.105 309.475L424.667 310.604C429.323 320.557 450.963 323.603 461.218 323.546C462.908 333.96 463.651 339.808 472.797 346.356C473.447 346.822 474.113 347.266 474.794 347.686C471.786 359.428 468.497 369.861 457.362 376.183C433.522 389.72 402.262 371.749 390.486 349.829C386.374 342.176 382.879 334.627 379.275 326.994C388.23 326.774 394.404 326.502 401.226 319.424C403.764 316.791 409.303 308.643 410.096 305.142L409.489 304.017C407.302 303.718 406.389 304.463 404.259 305.813C403.879 303.905 404.152 304.598 402.739 303.065C403.095 302.281 403.862 301.223 403.341 300.526C397.918 293.272 394.083 289.728 390.399 281.087C370.159 281.669 365.941 273.467 364.436 253.969C366.547 250.24 368.407 247.527 371.694 244.682C375.099 244.592 378.56 244.441 381.956 244.612C383.614 247.52 384.826 250.132 388.544 250.483C391.342 246.54 381.254 240.044 382.355 237.389C384.369 232.533 382.456 227.962 384.633 223.053C388.033 214.212 405.334 189.65 411.179 183.883C416.558 195.879 432.669 190.174 443.181 189.787C443.925 189.76 447.522 188.081 448.477 187.641Z"/><path fill="#DD614C" transform="scale(0.332031 0.331845)" d="M481.818 244.912C501.908 243.577 487.891 271.18 472.323 259.935L471.907 258.752C473.037 254.114 483.385 256.917 487.638 252.082L487.251 250.926C481.9 247.894 479.24 248.185 473.07 247.726C476.358 246.417 478.382 245.822 481.818 244.912Z"/><path fill="#DD614C" transform="scale(0.332031 0.331845)" d="M443.15 213.975C446.888 214.049 451.771 213.827 452.921 218.188C449.604 224.16 440.647 219.177 433.459 229.431C432.542 231.514 431.851 234.013 429.567 234.587C426.078 227.073 436.599 217.024 443.15 213.975Z"/><path fill="#DD614C" transform="scale(0.332031 0.331845)" d="M442.144 234.278C447.996 234.018 458.957 237.104 455.892 244.786C454.036 246.211 454.932 245.898 452.483 245.879C450.617 245.047 450.345 244.287 449.248 242.541L448.864 241.924C444.958 237.846 440.207 246.069 435.627 245.793C434.077 241.585 439.407 236.787 442.144 234.278Z"/><path fill="#DD614C" transform="scale(0.332031 0.331845)" d="M492.109 232.933C503.882 232.391 508.396 242.82 501.44 247.941L500.137 247.699L499.347 246.362C498.949 243.548 498.763 240.398 496.565 238.565C493.91 239.81 491.072 241.336 488.203 241.752L487.151 240.104C488.064 236.779 489.689 235.214 492.109 232.933Z"/><path fill="#DD614C" transform="scale(0.332031 0.331845)" d="M375.486 255.397C382.491 254.799 389.867 256.827 390.114 265.03C385.013 263.317 377.318 260.609 375.486 255.397Z"/><path fill="#F9F8F8" transform="scale(0.332031 0.331845)" d="M475.153 340.419C471.319 336.369 466.731 328.737 467.02 322.887C467.045 322.38 468.364 321.72 468.864 321.388C471.016 331.031 478.478 329.133 479.958 334.543C477.827 335.69 476.515 338.287 475.153 340.419Z"/><path fill="#F9F8F8" transform="scale(0.332031 0.331845)" d="M374.116 323.068C376.2 324.543 380.979 340.573 382.908 345.033C385.4 350.859 388.548 356.382 392.291 361.495C417.608 395.364 470.289 398.77 480.417 349.975C481.165 346.37 481.628 342.831 482.099 339.185C495.323 346.157 531.851 360.744 539.05 372.269C559.939 405.717 570.74 448.117 582.33 485.651C587.896 503.677 581.704 527.226 572.362 542.946C559.928 564.012 528.461 555.399 508.194 555.119C494.389 554.929 487.442 554.801 473.928 557.904L460.42 527.856C451.529 508.07 445.747 498.038 446.635 475.989C448.061 474.313 448.898 473.449 449.903 471.436L449.347 470.717C446.872 471.309 445.889 472.624 444.086 474.437C428.689 468.466 415.639 462.764 399.25 460.206C383.474 458.78 373.451 460.818 358.179 465.186C354.369 447.789 347.218 410.356 341.321 395.503C342.581 409.18 353.024 481.628 358.34 490.879C360.998 491.845 363.641 489.32 365.715 489.59C377.344 491.107 390.244 495.851 401.075 500.092C408.817 503.124 415.59 509.165 421.851 514.269C417.075 526.963 414.022 545.126 410.3 558.96C393.452 547.427 333.915 558.751 306.043 544.661C303.565 538.589 301.929 532.13 300.291 525.789C292.085 494.01 272.676 381.909 289.065 354.885C299.614 337.489 354.155 327.786 374.116 323.068Z"/><path fill="#DD614C" transform="scale(0.332031 0.331845)" d="M520.671 483.037C517.335 468.033 516.644 431.368 522.646 417.101C522.621 421.654 522.18 425.238 521.666 429.736L521.565 431.573C521.995 434.994 521.955 445.991 522.137 450.339C522.594 461.113 523.476 471.864 524.781 482.568C527.708 482.516 532.575 481.851 532.987 485.543C521.587 500.042 465.905 476.647 451.572 471.865C463.26 472.566 472.904 475.866 484.283 478.61C497.604 481.822 507.118 482.95 520.671 483.037Z"/><path fill="#DD614C" transform="scale(0.332031 0.331845)" d="M300.86 408.73C309.323 412.337 329.033 432.646 328.915 442.336C322.98 437.495 305.069 415.45 300.86 408.73Z"/><path fill="#DD614C" transform="scale(0.332031 0.331845)" d="M521.666 429.736C524.352 428.049 525.289 426.848 528.54 426.761L528.141 426.913L528.231 427.768L528.815 427.048L527.573 427.114L527.442 428.478C524.942 430.295 524.476 430.521 521.565 431.573L521.666 429.736Z"/><path fill="#F9F8F8" transform="scale(0.332031 0.331845)" d="M454.01 533.718C464.638 533.182 461.202 586.09 487.288 559.906C507.106 560.46 524.86 562.183 544.485 563.311C551.449 601.19 561.598 647.961 553.344 685.696C537.802 687.797 522.343 691.248 506.599 693.286C472.477 697.703 441.594 696.666 407.532 694.192C369.687 689.478 340.175 683.432 303.642 671.839C308.038 631.474 321.225 595.427 318.324 555.207C344.548 562.471 375.931 558.711 403.006 563.34C405.074 563.693 413.01 564.244 414.092 563.074C419.57 557.151 419.796 544.957 420.508 537.235C432.841 537.686 442.006 535.875 454.01 533.718Z"/><path fill="#F9F8F8" transform="scale(0.332031 0.331845)" d="M525.958 1232.39L526.52 1232.51C529.409 1234.77 534.049 1245.05 535.732 1248.55C533.27 1249.36 526.121 1251.41 525.861 1254.11C529.59 1255.42 534.617 1253.21 538.386 1251.94C542.419 1254.62 544.086 1256.26 547.542 1259.55C541.296 1262.07 538.263 1263.43 532.819 1267.24C540.131 1266.45 545.39 1264.79 552.406 1262.84L561.955 1269.11L554.032 1272.75C572.126 1270.87 572.36 1273.43 588.668 1279.78C601.942 1298.5 588.34 1307.07 569.928 1308.25C568.175 1308.35 566.284 1308.2 564.531 1308.05C549.074 1306.69 484.248 1289.19 475.399 1277.73C470.101 1270.87 473.177 1256.56 474.08 1248.35C488.337 1266.02 496.455 1248.93 508.743 1240.49C513.97 1236.9 520.046 1234.66 525.958 1232.39Z"/><path fill="#F9F8F8" transform="scale(0.332031 0.331845)" d="M225.494 1249.11L225.835 1248.48C231.666 1237.43 221.996 1213.21 247.708 1225.6C267.469 1235.12 252.492 1277.68 287.959 1244.63C290.234 1254.93 292.272 1265.92 292.038 1276.52C284.122 1278.15 275.185 1278.83 267.559 1281.54C243.157 1290.21 222.02 1302.06 196.543 1308.09C186.552 1310.45 159.883 1305.7 168.513 1289.59C171.004 1284.94 190.189 1274.31 196.33 1270.6C201.966 1272.51 217.063 1278.42 222.214 1274.36C221.638 1268.87 203.25 1269.22 198.614 1269.06C202.083 1266.75 205.634 1264.31 209.155 1262.09C214.342 1263.38 227.394 1267.09 232.143 1265.65L231.821 1264.73C225.823 1260.98 218.591 1261.2 211.333 1260.44C215.727 1257.89 219.931 1255.64 223.031 1251.52C228.279 1253.4 242.302 1258.94 247.025 1255.96L246.396 1254.79C240.761 1251.33 232.164 1250.33 225.494 1249.11Z"/><path fill="#F9F8F8" transform="scale(0.332031 0.331845)" d="M371.589 464.35C386.951 462.525 402.527 464.349 417.051 469.673C426.909 473.237 432.865 476.189 443.316 477.278C441.008 496.119 444.2 505.88 451.755 523.2L442.916 519.48C411.888 505.815 401.47 487.414 363.934 487.546C361.751 480.954 360.102 472.941 358.518 466.083C362.818 465.128 367.205 464.795 371.589 464.35Z"/><path fill="#F9F8F8" transform="scale(0.332031 0.331845)" d="M396.864 162.295C402.625 163.352 419.778 162.15 426.716 161.863C406.319 172.751 387.96 200.798 378.504 221.859C376.711 225.851 377.018 236.433 374.978 238.281C360.192 239.833 367.911 224.687 370.582 216.578C372.571 212.007 381.788 200.685 379.129 196.845C368.139 194.835 364.705 225.599 359.023 227.982C355.551 225.994 355.23 221.754 355.796 218.162C359.843 192.48 376.97 177.066 396.864 162.295Z"/><path fill="#F9F8F8" transform="scale(0.332031 0.331845)" d="M291.196 1284.5L293.041 1284.51L293.789 1285.55C293.718 1287.05 293.386 1288.05 292.462 1289.24C284.726 1299.27 222.287 1324.38 208.936 1325.47C195.009 1326.6 174.834 1325.16 163.816 1315.78C162.47 1310.74 162.355 1307.96 161.977 1302.81C180.071 1324.64 204.997 1315.43 226.897 1306.09C248.191 1297.01 268.124 1288.04 291.196 1284.5Z"/><path fill="#F9F8F8" transform="scale(0.332031 0.331845)" d="M245.892 1192.25C256.263 1194.62 277.029 1197.74 287.567 1198.51C285.946 1206.76 281.739 1238.37 278.865 1243.53C274.649 1249.16 269.775 1257.2 266.172 1245.36C262.346 1232.78 257.791 1226.91 246.98 1220C248.308 1211.06 247.05 1201.1 245.892 1192.25Z"/><path fill="#F9F8F8" transform="scale(0.332031 0.331845)" d="M481.672 1199.4C494.971 1201.82 505.728 1202.14 519.223 1202.14C519.146 1211.21 519.77 1218.61 520.851 1227.6C514.374 1229.66 508.588 1232.22 503.183 1236.41C499.985 1239.73 483.947 1258.3 479.402 1248.81C480.012 1248.27 480.625 1247.73 481.181 1247.14C484.367 1243.71 481.94 1206.75 481.672 1199.4Z"/><path fill="#F9F8F8" transform="scale(0.332031 0.331845)" d="M467.789 1282.47C473.315 1286.18 476.949 1289.26 483.567 1292.23C508.929 1303.61 540.056 1313.68 567.719 1316.61C580.958 1318.01 590.776 1311.89 599.846 1303.62L600.166 1312.66C600.061 1313.81 599.639 1314.69 598.735 1315.42C597.593 1316.34 570.684 1323.63 567.817 1324.06C564.073 1324.62 560.43 1324.5 556.688 1324.05C538.674 1321.9 480.209 1307.91 469.4 1293.71C466.778 1290.26 467.287 1286.49 467.789 1282.47Z"/><path fill="#F9F8F8" transform="scale(0.332031 0.331845)" d="M386.67 129.551C401.663 127.924 417.015 132.255 428.638 141.87C423.077 140.432 406.797 136.802 402.991 141.9L403.582 142.854C408.346 145.549 417.292 145.151 423.026 145.259L425.132 156.087C394.803 156.079 388.576 163.222 372.896 131.47C377.59 130.434 381.902 130.055 386.67 129.551Z"/><path fill="#F9F8F8" transform="scale(0.332031 0.331845)" d="M493.853 112.224L495.16 113.098C499.896 123.144 484.894 140.117 477.562 146.446C474.423 146.511 468.104 147.405 466.947 143.95C469.118 140.262 477.415 137.628 481.51 136.011C482.799 134.114 482.52 135.01 482.435 132.571C477.847 127.299 467.558 138.478 461.821 136.79C461.484 135.055 461.915 134.309 462.686 132.718C468.051 121.655 482.842 115.933 493.853 112.224Z"/><path fill="#F9F8F8" transform="scale(0.332031 0.331845)" d="M441.762 132.729C454.206 133.039 455.962 135.932 460.386 146.849C451.176 148.8 445.041 151.747 436.85 156.163C427.488 161.826 428.434 140.584 433.923 136.505C439.662 135.588 440.009 140.256 444.35 141.388L444.943 140.187C445.034 138.01 442.914 134.821 441.762 132.729Z"/><path fill="#F9F8F8" transform="scale(0.332031 0.331845)" d="M423.592 515.281C429.814 517.277 441.004 524.366 450.247 527.615C448.093 528.27 445.34 528.887 443.111 529.453C436.273 530.955 428.749 532.202 421.822 533.489C422.558 527.25 423.182 521.544 423.592 515.281Z"/><path fill="#F9F8F8" transform="scale(0.332031 0.331845)" d="M481.667 272.312C487.687 281.549 480.459 281.201 474.352 282.107L466.657 282.197C466.362 279.21 466.196 275.995 465.984 272.981C471.738 273.048 475.915 272.784 481.667 272.312Z"/><path fill="#F9F8F8" transform="scale(0.332031 0.331845)" d="M448.243 271.468C453.251 271.548 457.797 272.025 462.774 272.505L462.72 282.21L448.947 282.904C448.506 279.349 448.414 275.095 448.243 271.468Z"/><path fill="#F9F8F8" transform="scale(0.332031 0.331845)" d="M471.078 285.173C474.952 285.012 479.129 284.997 483.026 284.919C482.816 289.124 483.622 293.198 479.25 294.513C474.883 295.084 469.326 296.546 466.696 291.912C465.986 288.284 467.575 285.874 471.078 285.173Z"/><path fill="#F9F8F8" transform="scale(0.332031 0.331845)" d="M450.358 285.779C453.993 285.475 458.938 285.593 462.675 285.572C462.862 288.364 463.584 293.388 462.066 295.381C457.768 295.43 454.231 295.188 449.967 294.887C450.025 291.916 449.266 287.997 450.358 285.779Z"/><path fill="#F9F8F8" transform="scale(0.332031 0.331845)" d="M485.658 272.424C490.189 273.261 493.964 273.461 497.24 276.833C497.947 281.249 491.069 281.253 487.984 281.573L486.486 281.723C485.303 278.534 485.48 275.743 485.658 272.424Z"/><path fill="#F9F8F8" transform="scale(0.332031 0.331845)" d="M444.388 272.117L445.122 272.463C445.95 274.869 445.731 280.645 444.754 283.043C443.164 283.753 439.105 283.595 437.137 283.621L436.336 283.229C435.695 278.792 441.032 274.208 444.388 272.117Z"/><path fill="#F9F8F8" transform="scale(0.332031 0.331845)" d="M494.683 136.968C497.468 139.583 500.134 144.175 497.994 147.819C495.502 148.64 495.464 148.123 492.47 147.397L486.916 146.559C489.819 143.341 492.059 140.396 494.683 136.968Z"/><path fill="#F9F8F8" transform="scale(0.332031 0.331845)" d="M485.662 284.787L497.824 284.534L493.684 288.907C491.603 290.517 488.74 292.291 486.488 293.77L485.662 284.787Z"/><path fill="#F9F8F8" transform="scale(0.332031 0.331845)" d="M436.969 285.707C444.873 284.375 445.913 287.17 445.326 294.342C441.871 292.797 436.875 290.004 436.969 285.707Z"/><path fill="#DD614C" transform="scale(0.332031 0.331845)" d="M153.106 942.116C160.146 942.886 163.489 946.986 168.337 951.809C173.093 948.644 184.253 940.526 188.835 946.296C190.355 952.114 185.322 959.404 182.444 964.345C186.802 967.494 193.013 973.227 193.811 978.677C192.084 984.977 184.05 982.503 179.023 981.59L173.547 980.187C170.509 985.46 169.061 991.031 164.19 994.916C162.02 995.409 162.893 995.55 160.937 994.345C157.993 989.858 157.409 982.932 156.545 977.543C151.26 977.165 145.956 977.441 142.131 973.885C139.89 967.43 149.531 963.393 154.215 960.786C152.844 954.962 150.963 947.803 153.106 942.116ZM167.395 958.896C164.431 956.398 161.77 954.137 158.61 951.858C160.845 963.29 159.09 965.124 149.144 970.952C154.605 971.581 158.119 971.289 161.894 975.221C162.961 978.622 163.659 981.133 164.416 984.613C171.583 969.463 171.685 975 185.434 976.278C182.122 972.279 179.307 969.039 175.736 965.274C176.774 963.175 182.382 952.474 182.146 951.001C176.966 954.052 172.798 956.244 167.395 958.896Z"/><path fill="#DD614C" transform="scale(0.332031 0.331845)" d="M649.222 388.253C656.198 390.879 660.275 394.479 665.093 399.996C669.711 396.886 681.974 388.171 686.276 394.169C687.424 399.952 682.346 407.039 679.361 411.848C683.794 415.344 693.193 422.937 689.932 428.97C686.417 431.41 682.399 430.122 678.122 429.47L670.388 427.36C668.46 431.81 665.021 439.908 660.54 441.922C654.499 441.608 654.067 430.127 653.455 425.332C648.49 425.111 638.094 425.961 638.512 419.077C641.357 414.034 646.482 411.797 651.537 408.758C649.457 401.781 648.126 395.568 649.222 388.253Z"/><path fill="#F9F8F8" transform="scale(0.332031 0.331845)" d="M678.62 399.686C678.891 401.443 673.881 410.656 672.761 412.881C675.978 416.373 680.276 420.778 682.863 424.602C673.196 419.826 676.751 422.311 667.392 421.502C665.259 425.102 663.063 429.375 661.048 433.105C660.546 430.111 659.885 427.089 659.267 424.112C657 418.853 651.74 419.392 646.75 419.001L657.205 411.137C656.58 407.205 655.981 403.27 655.408 399.331L664.403 406.96C669.17 404.59 673.909 402.165 678.62 399.686Z"/><path fill="#DD614C" transform="scale(0.332031 0.331845)" d="M196.823 160.504C204.406 162.889 206.831 166.105 211.898 171.994C215.638 168.84 221.58 164.113 226.629 165.272C231.883 169.841 225.314 177.699 222.39 181.977C225.308 184.22 236.477 193.425 229.887 197.725C226.832 199.718 220.239 197.1 216.77 196.004L215.772 195.867C212.1 199.681 209.318 212.665 203.777 212.302C200.447 209.262 199.895 199.516 199.428 194.852C194.392 195.029 184.851 196.579 183.799 190.067C185.422 184.861 193.041 181.542 197.741 179.07C197.216 172.505 196.894 167.078 196.823 160.504Z"/><path fill="#F9F8F8" transform="scale(0.332031 0.331845)" d="M207.491 177.122C207.856 177.316 208.221 177.51 208.586 177.704L209.05 177.921C212.216 179.432 213.531 177.104 216.416 178.028C217.412 180.106 216.774 180.377 215.995 183.151C216.867 185.091 221.3 189.302 223.015 191.065L212.823 188.176C211.175 190.815 209.771 193.809 208.38 196.609C207.884 197.934 207.618 198.273 206.866 199.417C205.123 198.062 204.711 191.047 204.377 188.387C201.472 188.404 199.867 188.341 196.986 188.01C197.346 187.588 201.223 186.351 202.07 186.052C201.116 185.312 200.834 185.266 199.752 184.765C202.403 183.063 205.167 182.256 203.955 179.016C204.862 177.627 205.614 177.759 207.491 177.122Z"/><path fill="#DD614C" transform="scale(0.332031 0.331845)" d="M648.375 605.816C655.734 607.285 659.538 611.711 664.661 616.782C667.917 613.435 672.209 608.297 677.161 610.06C680.523 614.037 676.746 621.501 675.141 625.752C678.851 627.841 687.839 632.913 687.998 637.315C685.812 640.847 675.323 639.128 671.569 640.654C670.999 642.693 670.393 644.722 669.751 646.74C668.6 650.262 667.295 652.803 663.879 654.532C656.845 654.651 656.176 645.197 655.227 639.81C649.38 639.699 644.479 640.304 639.936 636.778C637.205 630.747 646.054 626.85 650.411 624.311C648.547 617.678 647.808 612.754 648.375 605.816Z"/><path fill="#F9F8F8" transform="scale(0.332031 0.331845)" d="M654.801 616.631C657.095 618.016 661.583 622.458 663.731 624.462L671.66 618.273L668.513 628.287L676.86 633.85C672.171 633.334 669.108 632.149 665.988 636.082C665.054 639.459 664.016 642.632 662.929 645.955C660.258 633.181 659.488 633.529 646.55 633.875C650.078 631.426 653.499 628.782 656.926 626.189L654.801 616.631Z"/><path fill="#DD614C" transform="scale(0.332031 0.331845)" d="M182.995 365.672C188.9 368.995 187.907 382.083 191.796 387.536C195.303 392.454 200.781 396.4 205.379 400.528C196.642 411.177 190.96 412.699 191.131 428.911C191.166 432.167 190.6 436.771 189.272 439.847C187.563 441.29 188.355 440.871 185.531 440.977C184.15 433.533 181.813 417.161 175.614 412.486C172.887 410.429 167.117 408.568 163.457 405.188C162.825 401.091 173.39 397.933 176.139 393.294C181.17 384.805 180.2 374.959 182.995 365.672ZM172.594 403.937C180.695 408.393 182.493 410.814 186.38 419.423C190.679 412.941 187.807 410.92 197.021 401.445C190.789 397.091 186.207 391.386 184.638 383.743C181.22 393.928 180.629 396.641 172.594 403.937Z"/><path fill="#DD614C" transform="scale(0.332031 0.331845)" d="M391.455 1087.66C398.535 1090.41 394.724 1104.26 398.012 1110.12C400.443 1114.45 405.969 1120.03 409.414 1123.86C398.526 1133.65 394.713 1132.6 393.238 1149.57C392.945 1152.94 392.148 1159.46 388.645 1160.52C377.132 1148.41 397.464 1135.78 369.655 1122.92C371.317 1122.04 372.972 1121.15 374.62 1120.26C388.935 1112.39 387.18 1102.36 391.455 1087.66Z"/><path fill="#F9F8F8" transform="scale(0.332031 0.331845)" d="M391.467 1110.09C392.555 1111.01 398.247 1120.97 399.678 1123.22C395.761 1126.69 393.919 1129.37 390.958 1133.55C387.006 1128.08 386.86 1127.27 382.143 1122.38C387.226 1117.82 388.455 1115.94 391.467 1110.09Z"/><path fill="#DD614C" transform="scale(0.332031 0.331845)" d="M620.798 989.115C640.342 989.789 643.382 1016.8 621.094 1020.64C596.532 1019.22 599.734 993.075 620.798 989.115ZM629.305 1006.69C628.915 1002.56 629.189 1000.81 625.555 998.295C622.276 998.977 611.787 1001.52 612.897 1006.29C614.284 1004.61 613.566 1005.01 615.536 1004.52C622.004 1008.09 621.675 1009.13 629.305 1006.69Z"/><path fill="#F9F8F8" transform="scale(0.332031 0.331845)" d="M629.305 1006.69C625.911 1019.18 605.48 1013.32 611.143 1001.26C613.641 995.939 620.553 995.685 625.555 998.295C622.276 998.977 611.787 1001.52 612.897 1006.29C614.284 1004.61 613.566 1005.01 615.536 1004.52C622.004 1008.09 621.675 1009.13 629.305 1006.69Z"/><path fill="#DD614C" transform="scale(0.332031 0.331845)" d="M258.665 255.442C279.073 254.662 281.298 283.371 259.078 285.059C238.166 283.844 235.794 260.341 258.665 255.442ZM259.99 278.463C272.496 273.634 269.456 262.662 256.685 260.502C243.867 267.312 248.058 275.27 259.99 278.463Z"/><path fill="#DD614C" transform="scale(0.332031 0.331845)" d="M173.031 812.693C181.274 812.21 188.358 818.476 188.882 826.715C189.407 834.954 183.174 842.067 174.936 842.632C166.64 843.201 159.464 836.917 158.936 828.62C158.408 820.324 164.729 813.18 173.031 812.693ZM177.256 835.151C187.017 825.419 180.25 818.933 168.767 819.037C160.303 828.727 166.693 834.755 177.256 835.151Z"/><path fill="#DD614C" transform="scale(0.332031 0.331845)" d="M654.513 771.757C662.391 771.338 668.674 774.154 670.778 782.399C671.812 786.586 671.158 791.011 668.957 794.72C666.07 799.542 662.815 800.763 657.651 802.108C656.074 801.834 654.507 801.507 652.952 801.128C645.178 799.174 639.091 792.88 641.596 784.508C643.522 778.069 648.907 774.669 654.513 771.757Z"/><path fill="#F9F8F8" transform="scale(0.332031 0.331845)" d="M653.679 776.921C664.745 776.681 668.398 787.188 659.747 795.19C646.995 793.598 642.311 785.865 653.679 776.921Z"/><path fill="#DD614C" transform="scale(0.332031 0.331845)" d="M606.759 871.615C609.806 871.436 612.757 871.296 615.663 872.432C619.021 873.773 621.696 876.412 623.082 879.751C624.468 883.101 624.431 886.87 622.98 890.192C620.862 895.116 617.588 897.002 612.872 898.824C594.951 900.183 587.126 881.429 606.759 871.615Z"/><path fill="#F9F8F8" transform="scale(0.332031 0.331845)" d="M608.127 877.072C612.294 876.569 616.083 879.529 616.602 883.693C617.121 887.857 614.174 891.656 610.011 892.191C605.826 892.728 602.001 889.763 601.48 885.577C600.958 881.391 603.938 877.578 608.127 877.072Z"/><path fill="#DD614C" transform="scale(0.332031 0.331845)" d="M162.471 1116.4C168.629 1116.04 174.936 1118.38 177.319 1124.49C178.605 1127.79 178.464 1131.48 176.928 1134.67C174.635 1139.54 171.206 1141.09 166.413 1142.75C159.97 1142.8 153.703 1140.47 151.31 1133.97C150.219 1130.97 150.372 1127.67 151.736 1124.78C154.035 1119.81 157.635 1118.1 162.471 1116.4ZM167.627 1135.76C174.845 1128.09 170.998 1123.35 161.813 1122.07C153.672 1130.48 157.662 1134.37 167.627 1135.76Z"/><path fill="#DD614C" transform="scale(0.332031 0.331845)" d="M603.039 95.9505C619.997 95.091 620.921 117.024 602.083 122.065C596.485 120.769 591.212 118.963 589.3 112.86C588.439 110.025 588.777 106.962 590.234 104.383C593.055 99.2895 597.726 97.3932 603.039 95.9505Z"/><path fill="#F9F8F8" transform="scale(0.332031 0.331845)" d="M600.639 101.624C611.884 101.811 610.422 108.582 604.017 114.954C592.842 114.138 593.549 108.238 600.639 101.624Z"/><path fill="#DD614C" transform="scale(0.332031 0.331845)" d="M601.173 175.977C604.132 175.729 607.831 175.902 610.854 175.958C622.753 183.434 619.656 194.555 608.162 200.46C605.422 200.764 602.711 200.914 600.057 200.068C596.798 199.056 594.088 196.768 592.545 193.726C591.102 190.799 590.936 187.406 592.087 184.352C593.796 179.697 596.931 177.869 601.173 175.977ZM608.259 192.536C616.038 184.541 609.931 181.386 601.503 181.069C599.576 184.01 597.312 186.804 597.932 190.401C600.445 194.292 604.264 192.232 608.259 192.536Z"/><path fill="#DD614C" transform="scale(0.332031 0.331845)" d="M605.818 718.996C611.607 718.527 616.72 722.747 617.355 728.518C617.99 734.29 613.918 739.52 608.166 740.321C604.295 740.86 600.437 739.253 598.094 736.125C595.751 732.997 595.294 728.844 596.9 725.282C598.507 721.719 601.923 719.312 605.818 718.996Z"/><path fill="#F9F8F8" transform="scale(0.332031 0.331845)" d="M605.248 725.474C607.413 724.797 609.727 725.944 610.499 728.076C611.271 730.208 610.228 732.57 608.131 733.436C606.69 734.031 605.038 733.787 603.831 732.801C602.623 731.815 602.055 730.245 602.351 728.714C602.647 727.184 603.76 725.939 605.248 725.474Z"/><path fill="#DD614C" transform="scale(0.332031 0.331845)" d="M617.033 241.843L618.314 242.476C621.73 248.35 602.792 289.332 597.835 294.674C597.015 293.859 595.777 292.43 595.853 291.307C596.674 279.114 610.102 250.504 617.033 241.843Z"/><path fill="#DD614C" transform="scale(0.332031 0.331845)" d="M213.512 639.233C215.684 638.973 216.002 638.912 217.97 639.824C218.897 641.552 218.783 640.749 218.352 642.7C213.378 648.935 182.963 657.757 173.798 660.683C171.739 661.058 170.515 661.286 168.888 660.071L168.981 658.579C174.437 652.408 204.781 642.347 213.512 639.233Z"/><path fill="#DD614C" transform="scale(0.332031 0.331845)" d="M621.604 315.822C632.911 315.402 659.647 315.237 669.145 320.213L669.57 321.647L669.6 320.609L668.979 322.06C668.004 322.623 665.91 323.029 664.741 323.313C658.094 323.475 618.277 324.541 616.927 318.294C618.356 316.629 619.494 316.502 621.604 315.822Z"/><path fill="#DD614C" transform="scale(0.332031 0.331845)" d="M232.301 648.733C241.824 652.853 214.126 684.765 209.89 688.663C208.091 687.455 208.62 688.132 207.879 686.123C208.887 676.528 225.756 655.85 232.301 648.733Z"/><path fill="#DD614C" transform="scale(0.332031 0.331845)" d="M218.046 508.987C221.462 508.138 225.07 509.206 227.473 511.777C229.876 514.349 230.697 518.02 229.618 521.369C228.54 524.719 225.731 527.222 222.279 527.908C217.112 528.936 212.069 525.654 210.919 520.514C209.77 515.374 212.934 510.257 218.046 508.987ZM221.301 521.973C223.122 521.379 224.176 519.483 223.719 517.624C223.263 515.765 221.45 514.572 219.562 514.889C218.208 515.116 217.096 516.081 216.68 517.388C216.265 518.696 216.616 520.126 217.59 521.092C218.564 522.059 219.997 522.399 221.301 521.973Z"/><path fill="#DD614C" transform="scale(0.332031 0.331845)" d="M173.996 617.475C185.241 617.47 207.874 620.576 218.358 625.916C220.765 627.141 220.946 628.892 221.474 631.09C207.562 630.08 190.17 627.094 177.201 621.249C175.623 620.538 174.767 618.973 173.996 617.475Z"/><path fill="#DD614C" transform="scale(0.332031 0.331845)" d="M566.224 254.106C573.473 258.036 580.581 291.848 579.651 300.763C570.502 296.083 564.661 264.081 566.224 254.106Z"/><path fill="#DD614C" transform="scale(0.332031 0.331845)" d="M210.63 580.53C219.12 585.338 230.144 604.042 235.667 612.594C236.42 613.76 237.376 617.803 237.709 619.311C227.326 617.654 210.346 591.079 210.63 580.53Z"/><path fill="#DD614C" transform="scale(0.332031 0.331845)" d="M644.896 274.919C645.742 274.836 646.502 274.949 647.356 275.018L648.104 275.946C647.611 281.859 622.277 298.814 616.036 302.416C615.3 302.33 614.469 301.896 613.749 301.593C610.179 294.038 638.934 278.422 644.896 274.919Z"/><path fill="#DD614C" transform="scale(0.332031 0.331845)" d="M600.446 333.051C611.336 333.483 636.696 347.113 640.721 357.378C633.732 356.425 618.236 347.67 611.894 343.957C606.979 341.079 601.892 338.624 600.446 333.051Z"/><path fill="#DD614C" transform="scale(0.332031 0.331845)" d="M219.298 740.196C232.84 739.416 237.761 748.511 225.745 757.363C213.6 757.792 207.574 748.956 219.298 740.196Z"/><path fill="#F9F8F8" transform="scale(0.332031 0.331845)" d="M221.732 744.507C222.948 744.023 224.33 744.24 225.338 745.074C226.345 745.908 226.817 747.226 226.568 748.51C226.319 749.793 225.388 750.839 224.142 751.236C222.307 751.82 220.338 750.847 219.689 749.034C219.04 747.221 219.943 745.22 221.732 744.507Z"/><path fill="#DD614C" transform="scale(0.332031 0.331845)" d="M371.301 1220.28C374.359 1219.4 377.653 1220.24 379.913 1222.48C382.174 1224.72 383.047 1228.01 382.195 1231.07C381.344 1234.13 378.902 1236.5 375.81 1237.25C371.165 1238.38 366.467 1235.59 365.24 1230.97C364.013 1226.35 366.706 1221.6 371.301 1220.28Z"/><path fill="#DD614C" transform="scale(0.332031 0.331845)" d="M401.333 1016.52C414.871 1015.92 415.398 1026.6 404.835 1033.75C403.716 1033.75 402.598 1033.69 401.488 1033.56C397.034 1033.02 393.289 1030.01 394.305 1025.04C395.2 1020.65 397.847 1018.93 401.333 1016.52Z"/><path fill="#F9F8F8" transform="scale(0.332031 0.331845)" d="M401.785 1020.77C403.405 1020.15 405.224 1020.92 405.902 1022.52C406.579 1024.11 405.872 1025.96 404.301 1026.69C403.233 1027.19 401.978 1027.07 401.029 1026.37C400.079 1025.67 399.586 1024.51 399.744 1023.35C399.902 1022.18 400.684 1021.19 401.785 1020.77Z"/><path fill="#DD614C" transform="scale(0.332031 0.331845)" d="M672.483 516.404C672.93 516.391 673.378 516.383 673.825 516.38C684.956 516.318 689.59 523.541 679.832 531.582C669.306 535.169 662.767 525.345 672.483 516.404Z"/></svg>