<?xml version="1.0" standalone="no"?>
<!DOCTYPE svg PUBLIC "-//W3C//DTD SVG 20010904//EN"
 "http://www.w3.org/TR/2001/REC-SVG-20010904/DTD/svg10.dtd">
<svg version="1.0" xmlns="http://www.w3.org/2000/svg"
 width="905.000000pt" height="905.000000pt" viewBox="0 0 905.000000 905.000000"
 preserveAspectRatio="xMidYMid meet">

<g transform="translate(0.000000,905.000000) scale(0.100000,-0.100000)"
fill="#000000" stroke="none">
<path d="M0 4525 l0 -4515 4525 0 4525 0 0 4515 0 4515 -4525 0 -4525 0 0
-4515z m2124 2034 c112 -41 190 -145 239 -314 16 -57 20 -99 20 -225 -1 -149
-2 -158 -33 -243 -42 -115 -110 -216 -199 -300 -93 -85 -167 -130 -310 -188
l-114 -46 -34 -109 c-173 -553 -268 -827 -333 -955 l-22 -42 31 -26 c140 -116
303 -226 416 -280 177 -85 319 -116 492 -109 98 4 114 7 169 37 75 40 121 84
180 172 41 62 49 69 78 69 28 0 36 -6 55 -42 33 -60 41 -209 17 -311 -61 -257
-235 -397 -492 -397 -251 0 -530 119 -790 336 -90 76 -277 246 -287 262 -13
20 -31 14 -61 -24 -50 -63 -137 -119 -207 -134 -140 -30 -306 23 -399 127
-161 181 -120 450 85 552 90 45 186 49 312 15 20 -5 27 4 68 86 25 51 65 145
89 209 44 116 166 468 166 480 0 3 -82 6 -182 6 -181 0 -184 0 -241 29 -85 41
-158 120 -196 209 -68 165 -58 314 18 248 60 -52 267 -82 535 -79 l198 3 87
260 c174 519 261 667 426 732 50 19 157 16 219 -8z m6173 -3 c38 -32 76 -103
103 -194 18 -60 22 -91 18 -176 -3 -91 -7 -109 -36 -169 -58 -118 -161 -195
-332 -249 -67 -21 -94 -23 -255 -23 -207 0 -294 15 -524 92 -73 25 -137 41
-141 36 -4 -4 -24 -44 -43 -88 -19 -44 -49 -111 -67 -150 -17 -38 -38 -83 -45
-100 -7 -16 -34 -74 -59 -128 -25 -55 -46 -101 -46 -103 0 -2 -13 -32 -29 -66
-97 -212 -193 -491 -218 -633 -24 -141 7 -217 74 -181 47 25 154 144 278 311
59 79 191 241 228 280 11 11 40 52 65 90 25 39 76 100 113 137 37 36 70 76 74
89 12 37 86 108 154 149 101 60 186 83 284 78 102 -4 159 -31 229 -107 97
-107 132 -212 132 -406 0 -135 -14 -223 -54 -339 -24 -71 -24 -69 -2 -57 54
29 176 166 257 289 52 80 82 105 117 100 70 -10 64 -178 -12 -336 -89 -187
-250 -378 -384 -458 -75 -45 -157 -61 -223 -45 -44 12 -47 11 -77 -17 -49 -47
-145 -106 -221 -138 -62 -26 -81 -29 -170 -29 -122 1 -182 19 -252 78 -88 73
-138 175 -149 304 l-7 73 -35 -58 c-81 -130 -217 -276 -317 -341 -104 -67
-228 -86 -304 -47 -60 32 -151 217 -151 310 0 20 -3 36 -7 36 -5 0 -21 -20
-36 -44 -69 -109 -249 -261 -354 -297 -246 -87 -394 29 -405 318 -2 40 -3 73
-4 73 0 0 -43 -42 -95 -93 -52 -51 -116 -106 -144 -122 -27 -15 -66 -47 -86
-69 -76 -85 -207 -136 -349 -136 -160 0 -287 121 -251 240 13 43 48 74 78 68
13 -2 19 -15 23 -43 4 -34 9 -41 38 -49 41 -12 80 13 98 65 29 79 12 143 -76
293 -74 125 -63 127 -144 -27 -107 -201 -203 -325 -330 -426 -78 -62 -129 -87
-213 -107 -213 -50 -333 58 -350 314 l-6 83 -20 -33 c-11 -18 -22 -35 -26 -38
-3 -3 -19 -23 -35 -45 -45 -61 -148 -159 -217 -205 -105 -72 -244 -106 -322
-81 -92 31 -159 175 -175 376 l-7 80 -63 -92 c-75 -109 -209 -240 -283 -277
-67 -33 -160 -36 -218 -6 -59 29 -117 102 -143 178 -20 59 -23 85 -23 227 1
140 4 174 28 270 75 302 202 588 320 720 43 49 53 55 88 55 55 0 142 -43 201
-100 62 -60 63 -85 6 -162 -90 -120 -206 -382 -237 -536 -25 -124 0 -213 62
-220 40 -5 102 35 157 101 60 74 143 234 160 307 25 108 98 317 145 413 26 53
68 120 93 148 45 51 46 51 96 47 63 -5 170 -57 231 -110 36 -32 45 -46 45 -73
0 -18 -7 -38 -15 -45 -28 -23 -128 -194 -167 -284 -114 -266 -163 -498 -123
-576 50 -96 158 -17 352 254 60 83 121 165 137 183 18 22 43 79 72 166 89 267
200 447 277 447 51 0 205 -79 250 -129 20 -22 37 -46 37 -53 0 -6 -26 -52 -58
-102 -175 -274 -295 -674 -236 -788 15 -28 19 -30 61 -25 27 3 54 14 70 28 46
44 149 173 255 320 l105 147 -5 71 c-11 164 57 327 188 449 54 50 184 110 275
128 93 18 186 12 279 -16 84 -27 131 -69 172 -154 32 -66 34 -77 34 -172 0
-74 -5 -116 -20 -158 -61 -179 -170 -276 -277 -247 -70 19 -133 112 -133 195
0 36 17 66 37 66 40 0 98 27 134 63 52 50 90 129 82 171 -10 54 -20 59 -100
53 -84 -6 -142 -39 -184 -104 -45 -69 -54 -103 -54 -208 0 -95 2 -103 34 -160
19 -33 42 -69 51 -80 27 -31 110 -163 140 -224 l27 -54 70 69 c38 38 85 89
104 114 37 49 57 73 106 129 17 20 35 51 38 69 13 71 90 282 141 390 38 78 69
128 104 164 47 48 51 50 90 45 55 -7 175 -66 228 -112 54 -47 54 -69 -2 -154
-143 -214 -278 -594 -263 -738 7 -66 28 -93 72 -93 62 0 134 76 329 347 79
109 89 129 107 204 38 160 119 396 194 564 7 17 45 109 85 205 39 96 84 204
99 240 20 45 26 69 19 77 -24 30 -128 88 -182 103 -33 9 -61 21 -63 26 -6 19
38 74 81 99 73 43 174 50 281 20 17 -5 28 7 65 71 25 42 68 102 97 132 50 53
53 55 93 48 52 -8 172 -67 226 -112 23 -18 47 -47 52 -63 9 -26 7 -35 -13 -63
-40 -55 -97 -149 -94 -152 2 -2 45 -11 95 -20 302 -54 627 25 740 180 44 62
60 102 74 187 5 32 14 65 21 73 17 21 54 17 86 -10z m-3740 -476 c54 -33 68
-64 68 -155 0 -67 -5 -89 -28 -137 -56 -114 -162 -191 -268 -192 -66 -1 -101
18 -134 75 -31 52 -27 167 8 235 45 88 115 154 192 182 50 18 126 14 162 -8z
m1813 5 c16 -8 41 -30 55 -49 22 -29 26 -45 26 -101 0 -86 -24 -152 -81 -223
-50 -63 -123 -107 -196 -118 -58 -8 -129 26 -156 76 -27 49 -21 175 12 243 65
137 238 225 340 172z m2100 -2036 c0 -17 -56 -151 -78 -188 -32 -53 -230 -226
-382 -335 -119 -84 -314 -202 -421 -254 -59 -29 -110 -52 -114 -52 -4 0 -21
-7 -38 -15 -46 -21 -235 -82 -314 -100 -305 -72 -549 -89 -858 -60 -239 23
-426 57 -975 164 -475 106 -692 139 -975 148 -223 7 -378 -6 -580 -47 -121
-25 -318 -81 -380 -109 -11 -5 -56 -24 -100 -42 -131 -54 -301 -146 -415 -223
-72 -49 -183 -130 -201 -146 -8 -8 -44 -40 -80 -70 -35 -30 -104 -98 -154
-152 -49 -53 -96 -97 -104 -97 -17 -1 -9 45 25 151 30 92 84 160 283 359 257
256 468 405 772 544 526 241 1077 295 1717 171 71 -14 274 -59 453 -100 528
-121 709 -152 969 -165 284 -14 529 8 810 75 153 37 425 140 557 211 28 15 70
38 92 51 102 55 219 137 334 235 68 57 87 67 87 46z"/>
<path d="M2071 6222 c-11 -22 -43 -102 -72 -178 -28 -77 -62 -167 -75 -201
-13 -34 -27 -76 -30 -93 -4 -17 -11 -33 -15 -36 -22 -13 -7 -25 24 -19 114 25
209 127 246 266 17 61 11 224 -9 264 -22 44 -45 43 -69 -3z"/>
<path d="M613 4210 c-12 -5 -27 -19 -33 -30 -10 -18 -8 -26 11 -46 30 -32 87
-32 155 0 70 33 74 43 22 66 -45 20 -117 25 -155 10z"/>
<path d="M7706 5348 c-12 -16 -16 -47 -16 -109 0 -178 98 -454 195 -549 l42
-41 27 92 c48 160 47 360 -3 475 -52 117 -200 197 -245 132z"/>
<path d="M7463 4870 c-46 -104 -67 -200 -67 -315 -1 -101 1 -115 27 -167 32
-66 67 -83 147 -76 47 5 140 43 140 58 0 4 -18 37 -40 73 -51 86 -112 232
-150 365 -17 59 -32 107 -33 109 -1 1 -12 -20 -24 -47z"/>
</g>
</svg>
